<svg preserveAspectRatio="none" overflow="visible" style="display: block;" width="97.931" height="35.1547" viewBox="0 0 97.931 35.1547" fill="none" xmlns="http://www.w3.org/2000/svg">
<g id="carlsberg_logo.svg" clip-path="url(#clip0_0_270)">
<path id="Vector" fill-rule="evenodd" clip-rule="evenodd" d="M87.9913 16.4761C87.9913 13.9789 89.3636 12.6128 91.0222 12.6128C91.9293 12.5918 92.925 13.0608 93.5002 13.9579V18.2685C92.9035 19.6555 91.9293 20.2748 90.7789 20.2748C89.1641 20.2748 87.9913 18.6747 87.9913 16.4761V16.4761ZM74.4186 1.36615C74.1305 1.85703 74.3962 2.3479 74.7505 2.54011C74.9714 2.66754 75.0814 2.90255 74.9276 3.15847C74.6619 3.58558 74.8167 4.0765 75.2371 4.31151C75.5681 4.50361 75.9233 4.43894 76.1228 4.33238C76.5861 4.1193 76.9842 3.75682 77.4494 4.01274C77.6042 4.09742 77.7142 4.26866 77.7142 4.43894C77.7142 4.97266 77.1614 5.12197 76.7409 5.39977C76.5647 5.50634 76.3214 5.78413 76.3214 6.14753C76.3214 6.61658 76.6971 6.97901 77.2061 6.97901C77.5157 6.97901 77.6704 7.17117 77.6704 7.44801C77.6704 7.83328 77.9809 8.30228 78.5775 8.30228C79.1527 8.30228 79.4623 7.83328 79.4623 7.44801C79.4623 7.17117 79.617 6.97897 79.9275 6.97897C80.4356 6.97897 80.8122 6.61653 80.8122 6.14753C80.8122 5.78413 80.5689 5.50634 80.3918 5.39977C79.9722 5.12202 79.4185 4.97266 79.4185 4.43894C79.4185 4.26866 79.5294 4.09742 79.6842 4.01274C80.1484 3.75686 80.5689 4.11925 81.0118 4.33238C81.2103 4.43894 81.5636 4.50361 81.8955 4.31146C82.317 4.07646 82.4717 3.58558 82.207 3.15842C82.0512 2.90255 82.1622 2.66754 82.3821 2.54011C82.7374 2.3479 83.0021 1.85707 82.715 1.36615C82.4055 0.876229 81.8517 0.854352 81.4984 1.04651C81.2551 1.17495 80.9894 1.15302 80.857 0.89715C80.5903 0.469991 80.0822 0.342507 79.6618 0.577509C79.3308 0.746834 79.1975 1.08835 79.1975 1.30243C79.1527 1.79331 79.2861 2.32603 78.8208 2.5829C78.6661 2.66754 78.4675 2.66754 78.3128 2.5829C77.8476 2.32603 77.9809 1.79331 77.9361 1.30243C77.9361 1.08835 77.8037 0.746834 77.4709 0.577509C77.0514 0.342507 76.5424 0.470039 76.299 0.89715C76.1442 1.15307 75.8795 1.17495 75.6352 1.04651C75.2809 0.854352 74.7281 0.876229 74.4186 1.36615ZM66.199 16.1983C66.3762 13.5736 67.947 12.6128 69.0752 12.6128C69.7837 12.6128 70.3589 12.9971 70.3589 13.6801C70.3589 15.1528 68.4562 16.1127 66.199 16.1983ZM51.0884 4.56738H51.6199C52.1727 4.56738 52.3713 4.84518 52.3713 5.37794V18.3759C52.3713 20.5954 53.6998 21.9824 56.9954 21.9824C59.8053 21.9824 61.3987 20.5954 61.3987 18.2475V16.6255C61.8629 16.7749 62.3496 16.9242 62.9034 17.0307C62.991 19.5708 64.9162 21.9824 68.4785 21.9824C71.1775 21.9824 72.9917 20.1682 73.8988 18.0981L73.3897 17.671C72.2383 19.3358 70.9117 20.211 69.3408 20.211C67.7709 20.211 66.4423 19.2293 66.199 17.2876C71.377 17.0517 73.456 12.8905 74.8945 12.8905C75.1816 12.8905 75.4697 13.019 75.4697 13.5736V21.7903H79.8506V20.8294H79.1858C78.7653 20.8294 78.5658 20.5735 78.5658 19.8695V16.0062C78.5658 14.9816 79.3853 13.5736 80.0043 13.4033C80.1377 13.9151 80.7791 14.5763 81.9286 14.5763C84.0757 14.5763 85.5366 12.2503 85.5366 10.5218C85.5366 8.45164 84.4747 7.74769 84.0094 7.74769C83.4557 7.74769 83.3018 8.17384 83.3018 8.45164C84.7394 8.45164 84.5847 11.2048 83.4557 11.2048C82.7257 11.2048 82.6157 10.2658 81.4653 10.2658C80.4686 10.2658 79.7172 10.8424 79.7172 12.101C79.2958 12.3788 78.7215 12.9971 78.5891 13.1465H78.5658V13.019C78.5658 11.7804 77.7044 10.9489 76.3982 10.9489C74.4954 10.9489 73.3683 12.3141 71.885 13.6592C71.9074 13.5308 71.9298 13.4034 71.9298 13.2749C71.9298 11.866 70.6236 10.9489 68.898 10.9489C65.6023 10.9489 63.3676 13.0828 62.9696 15.9424C62.3048 15.7931 61.8181 15.6228 61.3987 15.4297V11.1192H57.814V12.9971C57.814 13.8724 58.5002 15.0253 59.9601 15.9215V17.9697C59.9601 19.7202 59.0968 20.4023 57.6807 20.4023C56.1107 20.4023 55.4693 19.5489 55.4693 18.2475V3.6075H51.0884V4.56738ZM35.8446 4.56738H36.377C36.9289 4.56738 37.1284 4.84518 37.1284 5.37794V19.4642C37.1284 20.68 37.837 21.7903 39.5402 21.7903H47.3276C49.6061 21.7903 50.9785 20.5954 50.9785 18.61C50.9785 16.7749 49.6723 16.0709 48.3233 15.3659C46.8857 14.6191 45.5124 14.2357 45.5124 13.488C45.5124 13.0828 45.8453 12.7622 46.5753 12.7622C47.6595 12.7622 48.9199 13.4034 49.6723 14.1501L51.4428 11.1192H45.5796C43.7429 11.1192 42.6149 12.1866 42.6149 13.6592C42.6149 15.4943 44.0525 16.2202 46.4867 17.4151C47.4376 17.8841 48.2123 18.2685 48.2123 19.0799C48.2123 19.763 47.8143 20.2529 46.7962 20.2529C44.5839 20.2529 43.2125 17.1373 43.2125 17.1373H42.5049V20.702H40.933C40.3588 20.702 40.2254 20.4242 40.2254 19.8904V3.6075H35.8446V4.56738ZM20.0926 31.6071C23.4107 31.3939 26.9739 32.312 29.3848 35.1279C30.9781 33.6134 36.4646 29.0033 47.3724 29.0033C57.6807 29.0033 68.0142 32.8457 76.2659 32.8457C83.2123 32.8457 86.4651 29.6225 87.0393 26.0151C87.8365 27.0397 89.4074 27.9577 91.1769 27.894C94.6282 27.894 96.5982 25.1837 96.5982 22.1527V13.04C96.5982 12.3569 96.7529 12.0801 97.3282 12.0801H97.9033V11.1192H94.7839C94.0101 11.1192 93.6773 11.4398 93.5449 11.9735C92.8802 11.4189 91.9293 10.949 90.5354 10.949C87.4384 10.949 84.5623 12.7841 84.5623 16.6903C84.5623 19.8059 86.7308 21.9825 89.9388 21.9825C91.465 21.9825 92.704 21.2775 93.5002 20.3395V22.4087C93.5002 25.2684 92.3059 26.3786 90.3593 26.3786C88.3893 26.3786 87.0627 25.119 87.0179 23.5617H86.0885C86.178 28.1927 83.699 30.8175 76.7749 30.8175C66.5757 30.8175 57.3273 23.946 41.9959 23.946C28.3667 23.946 20.0926 31.6071 20.0926 31.6071V31.6071ZM14.031 16.4761C14.031 13.9789 15.4024 12.6128 17.0619 12.6128C17.8804 12.5918 18.7651 12.9762 19.3404 13.6801V18.6746C18.7214 19.7839 17.8581 20.2748 16.8185 20.2748C15.1805 20.2748 14.031 18.6746 14.031 16.4761ZM10.6011 16.6902C10.6011 19.8058 12.7696 21.9824 15.9786 21.9824C17.46 21.9824 18.6766 21.2994 19.4951 20.4023C19.8494 21.2994 20.8227 21.9824 22.0627 21.9824C24.2741 21.9824 25.8012 20.3395 26.5526 18.2475V21.7903H30.9548V20.8294H30.3806C29.8054 20.8294 29.6506 20.5516 29.6506 19.8686V16.1774C29.6506 14.2358 31.3549 12.2075 33.2129 12.2075C33.7443 12.2075 34.0976 12.5072 34.0976 12.8905C34.0976 13.2321 33.8542 13.488 33.4776 13.488C33.0581 13.488 32.9909 13.0828 32.8148 13.0828C32.2396 13.0828 31.531 13.5946 31.531 14.5764C31.531 15.4725 32.371 16.2411 33.5224 16.2411C35.0923 16.2411 36.1104 14.9816 36.1104 13.4671C36.1104 12.0372 34.9386 10.9489 33.4776 10.9489C31.9067 10.9489 30.3806 11.9297 29.6506 13.019V12.5072C29.6506 11.6748 29.2301 11.1192 28.3668 11.1192H25.114V12.0801H25.8226C26.2654 12.0801 26.5526 12.3569 26.5526 13.04V15.7503C25.9559 18.2047 24.6721 20.2749 23.3231 20.2749C22.8813 20.2749 22.4375 20.0617 22.4375 19.5071V13.0399C22.4375 12.3569 22.5708 12.08 23.146 12.08H23.7212V11.1192H20.6242C20.0266 11.1192 19.6285 11.397 19.4513 11.866C18.7866 11.3542 17.8581 10.9489 16.5538 10.9489C13.4558 10.9489 10.6011 12.784 10.6011 16.6902V16.6902ZM0.00470181 13.4033C0.00470181 21.7046 6.4421 28.342 15.7566 28.342C21.6636 28.342 25.0488 25.6317 26.4873 24.0525L26.0007 23.5616C24.5845 24.7993 21.9079 26.5488 17.7704 26.5488C10.601 26.5488 6.86261 21.4278 6.86261 16.1774C6.86261 9.41152 11.8849 6.23217 16.4652 6.23217C19.1866 6.23217 20.9113 6.9152 22.6379 8.30228C24.2526 5.52726 25.8888 2.77506 27.5044 -1.2628e-05H7.59255C4.29695 1.66487 0.00470181 6.91525 0.00470181 13.4033Z" fill="#9D9D9D"/>
</g>
<defs>
<clipPath id="clip0_0_270">
<rect width="97.931" height="35.1547" fill="white"/>
</clipPath>
</defs>
</svg>
